HIERARCHY
ROOT SpineBase
{
  OFFSET 0.000000 0.000000 0.000000
  CHANNELS 6 Xposition Yposition Zposition Zrotation Xrotation Yrotation
  JOINT SpineMid
  {
    OFFSET -0.000000 29.355107 0.000000
    CHANNELS 3 Zrotation Xrotation Yrotation
    JOINT SpineShoulder
    {
      OFFSET 0.092428 21.841700 -0.668054
      CHANNELS 3 Zrotation Xrotation Yrotation
      JOINT Neck
      {
        OFFSET 0.068421 7.243755 -0.535686
        CHANNELS 3 Zrotation Xrotation Yrotation
        JOINT Head
        {
          OFFSET -2.291523 13.967365 -0.204999
          CHANNELS 3 Zrotation Xrotation Yrotation
          End Site
          {
            OFFSET 0 0 0
          }
        }
      }
      JOINT ShoulderLeft
      {
        OFFSET -16.288020 -3.634423 4.631043
        CHANNELS 3 Zrotation Xrotation Yrotation
        JOINT ElbowLeft
        {
          OFFSET -2.426345 -28.426085 3.996816
          CHANNELS 3 Zrotation Xrotation Yrotation
          JOINT WristLeft
          {
            OFFSET 0.771046 -22.031013 -5.930429
            CHANNELS 3 Zrotation Xrotation Yrotation
            JOINT HandLeft
            {
              OFFSET 0.996997 -0.933225 -0.849995
              CHANNELS 3 Zrotation Xrotation Yrotation
              JOINT HandTipLeft
              {
                OFFSET 0.979180 -7.201638 -1.352492
                CHANNELS 3 Zrotation Xrotation Yrotation
                End Site
                {
                  OFFSET 0 0 0
                }
              }
              JOINT ThumbLeft
              {
                OFFSET 2.891753 0.817422 -4.298452
                CHANNELS 3 Zrotation Xrotation Yrotation
                End Site
                {
                  OFFSET 0 0 0
                }
              }
            }
          }
        }
      }
      JOINT ShoulderRight
      {
        OFFSET 14.662600 -2.729307 -6.304056
        CHANNELS 3 Zrotation Xrotation Yrotation
        JOINT ElbowRight
        {
          OFFSET 7.835111 -26.505792 1.442231
          CHANNELS 3 Zrotation Xrotation Yrotation
          JOINT WristRight
          {
            OFFSET 0.586655 -22.003012 -6.212637
            CHANNELS 3 Zrotation Xrotation Yrotation
            JOINT HandRight
            {
              OFFSET -1.428905 -2.394291 0.864627
              CHANNELS 3 Zrotation Xrotation Yrotation
              JOINT HandTipRight
              {
                OFFSET 1.089309 -6.609209 -1.073702
                CHANNELS 3 Zrotation Xrotation Yrotation
                End Site
                {
                  OFFSET 0 0 0
                }
              }
              JOINT ThumbRight
              {
                OFFSET -3.232490 0.709612 -1.559312
                CHANNELS 3 Zrotation Xrotation Yrotation
                End Site
                {
                  OFFSET 0 0 0
                }
              }
            }
          }
        }
      }
    }
  }
  JOINT HipLeft
  {
    OFFSET -6.659600 0.510350 -1.529568
    CHANNELS 3 Zrotation Xrotation Yrotation
    JOINT KneeLeft
    {
      OFFSET 1.337503 -27.466074 6.464309
      CHANNELS 3 Zrotation Xrotation Yrotation
      JOINT AnkleLeft
      {
        OFFSET 1.350355 -31.802210 8.213895
        CHANNELS 3 Zrotation Xrotation Yrotation
        JOINT FootLeft
        {
          OFFSET -2.851498 -3.509678 -12.740924
          CHANNELS 3 Zrotation Xrotation Yrotation
          End Site
          {
            OFFSET 0 0 0
          }
        }
      }
    }
  }
  JOINT HipRight
  {
    OFFSET 7.270185 1.346759 -5.219503
    CHANNELS 3 Zrotation Xrotation Yrotation
    JOINT KneeRight
    {
      OFFSET 4.898521 -27.887490 1.278519
      CHANNELS 3 Zrotation Xrotation Yrotation
      JOINT AnkleRight
      {
        OFFSET 1.796844 -32.998467 5.896288
        CHANNELS 3 Zrotation Xrotation Yrotation
        JOINT FootRight
        {
          OFFSET -1.015734 -7.889054 -5.457785
          CHANNELS 3 Zrotation Xrotation Yrotation
          End Site
          {
            OFFSET 0 0 0
          }
        }
      }
    }
  }
}
MOTION
Frames: 14
Frame Time: 0.033333
-32.878312 72.765293 345.430275 1.141225 -1.129847 18.561953 0.031688 0.104390 -18.512666 0.155888 0.355810 0.057391 5.477724 10.120235 0.913165 0.000000 0.000000 0.000000 -125.622856 -27.203317 -60.241663 -4.258831 -10.070214 73.136466 21.355147 -51.102330 54.905643 35.629981 47.508515 -90.932477 0.000000 0.000000 0.000000 0.000000 0.000000 0.000000 111.094548 22.647138 -13.515157 6.402056 -0.559673 -55.626587 -11.805309 1.490781 165.254909 -32.588270 5.322931 -116.513767 0.000000 0.000000 0.000000 0.000000 0.000000 0.000000 2.026998 4.445582 -18.110537 1.261060 1.439265 0.409057 -1.995456 -11.743945 0.786337 0.000000 0.000000 0.000000 2.642749 0.302986 -18.430878 -3.205071 -1.427220 -0.173111 -6.490046 -3.177015 4.876281 0.000000 0.000000 0.000000
-32.689001 73.119901 345.457000 1.088881 -0.497900 18.856932 0.086975 0.324347 -18.822227 0.175422 0.385458 0.052002 4.662170 8.938760 1.043054 0.000000 0.000000 0.000000 -130.048996 -17.362016 -53.446924 0.895738 1.868436 81.678629 52.069163 -22.177024 110.102316 44.329359 50.014020 -154.343150 0.000000 0.000000 0.000000 0.000000 0.000000 0.000000 117.297767 31.550548 -22.660347 3.877808 1.838102 -60.273638 26.989955 -13.004730 -116.753387 -6.505691 -9.978504 165.207186 0.000000 0.000000 0.000000 0.000000 0.000000 0.000000 1.683006 4.331170 -18.454259 1.633714 0.878190 0.504546 0.460054 -17.782939 -4.981917 0.000000 0.000000 0.000000 1.779373 0.080728 -18.714519 -2.361814 -1.711419 -0.165148 -4.741688 -8.075374 4.261575 0.000000 0.000000 0.000000
-32.480487 73.411359 345.548368 1.018206 0.129191 19.491623 0.108987 0.450472 -19.470154 0.174863 0.382849 0.045437 3.998355 7.920995 1.132714 0.000000 0.000000 0.000000 -130.577947 -7.296563 -41.148846 10.895016 1.626632 69.651149 52.598787 -2.866271 111.911827 40.246800 52.613229 -147.857600 0.000000 0.000000 0.000000 0.000000 0.000000 0.000000 121.888498 41.123317 -33.781422 2.569144 2.920761 -61.204831 45.109984 64.176508 24.064195 -54.877633 -30.693298 -14.808662 0.000000 0.000000 0.000000 0.000000 0.000000 0.000000 1.470055 4.250432 -19.126766 1.892561 0.356892 0.571454 2.770450 -25.958805 -12.048857 0.000000 0.000000 0.000000 0.959702 -0.230732 -19.358601 -1.639833 -1.824551 -0.151342 -6.372719 -3.667995 4.880069 0.000000 0.000000 0.000000
-32.202636 73.676242 345.630909 0.982858 0.728622 20.067563 0.103807 0.485230 -20.056112 0.150830 0.298027 0.040491 3.634023 7.395528 1.207474 0.000000 0.000000 0.000000 -126.195107 2.610743 -24.921574 8.581985 -1.303926 70.332664 39.127439 -35.848418 91.016248 35.301940 47.662892 -109.931579 0.000000 0.000000 0.000000 0.000000 0.000000 0.000000 127.002394 49.206248 -45.494100 -0.002454 2.932226 -60.228296 -26.343052 48.944032 145.860016 -52.368976 -1.686366 -84.476113 0.000000 0.000000 0.000000 0.000000 0.000000 0.000000 1.095381 4.115892 -19.765877 2.220180 0.043983 0.660794 4.096405 -34.742251 -19.918396 0.000000 0.000000 0.000000 0.051376 -0.737530 -19.997635 -1.041782 -1.533488 -0.102308 -6.310428 -3.742090 4.916227 0.000000 0.000000 0.000000
-31.935639 73.818939 345.753175 0.922748 1.201279 20.759380 0.077396 0.384958 -20.753562 0.100541 0.143151 0.035277 3.807027 7.380802 1.256427 0.000000 0.000000 0.000000 -122.064746 10.916218 -11.762728 10.099893 -7.139815 59.355441 15.972843 -51.374256 63.917032 34.417181 43.346419 -85.721877 0.000000 0.000000 0.000000 0.000000 0.000000 0.000000 128.980464 55.102518 -53.643407 -2.234092 2.681971 -57.825880 -4.906032 1.252854 -141.492878 -21.908624 3.972431 179.680342 0.000000 0.000000 0.000000 0.000000 0.000000 0.000000 0.844632 4.016014 -20.511340 2.421158 -0.110776 0.716512 4.169971 -42.393255 -26.999743 0.000000 0.000000 0.000000 -0.649787 -1.311299 -20.775309 -0.717893 -0.967451 -0.044215 -5.824810 -3.691250 4.663768 0.000000 0.000000 0.000000
-31.670026 73.848914 345.864106 0.909454 1.557309 21.238202 -0.001434 0.175477 -21.234184 0.073453 0.072457 0.032967 4.110596 7.729238 1.305272 0.000000 0.000000 0.000000 -115.326597 16.152842 -3.791501 8.936011 -12.687652 48.418277 10.997429 -49.743551 55.041295 26.622375 43.828902 -75.901178 0.000000 0.000000 0.000000 0.000000 0.000000 0.000000 130.552131 60.327156 -61.143866 -5.805627 -1.118706 -53.095849 34.707249 0.175586 -77.723303 -19.209768 -17.156317 101.850119 0.000000 0.000000 0.000000 0.000000 0.000000 0.000000 0.549493 3.907387 -21.045637 2.562464 -0.095353 0.756082 3.615223 -47.053729 -32.018343 0.000000 0.000000 0.000000 -1.412053 -1.121818 -21.264388 -0.110411 -0.876206 -0.068196 -5.118865 -3.642814 4.233652 0.000000 0.000000 0.000000
-31.424367 73.718002 345.985896 0.924936 1.765117 21.411770 -0.017118 0.120615 -21.409242 0.058128 0.101444 0.031269 4.060166 7.922482 1.367522 0.000000 0.000000 0.000000 -107.499482 18.698894 -0.782209 7.006775 -15.459490 40.893699 0.865634 -49.347133 44.515937 24.536678 38.202901 -69.148290 0.000000 0.000000 0.000000 0.000000 0.000000 0.000000 127.985453 64.038466 -63.015868 -8.532113 -5.262914 -48.762497 36.673473 4.946621 -41.340921 -27.288939 -12.145952 56.466695 0.000000 0.000000 0.000000 0.000000 0.000000 0.000000 0.277436 3.807423 -21.265713 2.624145 0.066791 0.774014 2.368618 -51.653076 -37.655827 0.000000 0.000000 0.000000 -1.891398 -2.263664 -21.636928 0.004965 1.032954 0.181703 -4.962460 -4.279483 3.878141 0.000000 0.000000 0.000000
-31.217875 73.547982 346.122774 0.916646 1.870235 21.544849 -0.017604 0.097868 -21.543161 0.043312 0.109675 0.029369 4.587561 7.816457 1.356198 0.000000 0.000000 0.000000 -97.488983 18.323430 -1.425797 3.478728 -16.645771 34.945211 -4.140659 -46.863168 34.238127 22.288651 36.469918 -56.686430 0.000000 0.000000 0.000000 0.000000 0.000000 0.000000 116.042248 66.453258 -55.084288 -8.858219 -8.179536 -43.808355 30.049434 4.038805 -33.234913 -25.882447 -12.990785 44.237371 0.000000 0.000000 0.000000 0.000000 0.000000 0.000000 0.094839 3.792295 -21.438385 2.670996 0.214006 0.788372 3.933005 -47.515348 -32.315192 0.000000 0.000000 0.000000 -2.184449 -2.500123 -21.830427 0.190214 1.258382 0.227727 -4.841033 -4.159034 3.784053 0.000000 0.000000 0.000000
-31.094968 73.266676 346.263925 0.897828 1.892616 21.318717 0.023456 0.151483 -21.317497 0.053183 0.073922 0.030481 5.160751 7.637773 1.324925 0.000000 0.000000 0.000000 -86.660442 15.572002 -3.782010 -0.531152 -16.477090 30.419180 -7.432913 -43.497468 29.970132 20.451804 31.501415 -52.986791 0.000000 0.000000 0.000000 0.000000 0.000000 0.000000 99.686356 66.752965 -42.153801 -8.416361 -10.594568 -39.051187 28.573551 7.972753 -31.861229 -23.810277 -23.934476 38.152821 0.000000 0.000000 0.000000 0.000000 0.000000 0.000000 0.018253 3.709810 -21.223670 2.607353 0.452947 0.772528 4.821240 -43.139103 -27.405313 0.000000 0.000000 0.000000 -2.201102 -2.629177 -21.623905 0.188993 1.357893 0.245016 -5.060111 -4.123541 3.925743 0.000000 0.000000 0.000000
-31.075300 72.905626 346.408729 0.839773 1.784549 20.888685 0.085584 0.065836 -20.882133 0.071028 -0.080277 0.036985 6.075108 7.592457 1.209529 0.000000 0.000000 0.000000 -77.484710 8.983349 -7.610605 -3.053465 -14.158478 28.329189 -15.038423 -41.208799 23.483083 24.613236 26.689039 -49.215647 0.000000 0.000000 0.000000 0.000000 0.000000 0.000000 83.377721 61.755537 -27.195962 -7.552171 -10.769713 -35.174230 27.559066 12.803561 -29.456757 -24.708885 -32.077864 31.066071 0.000000 0.000000 0.000000 0.000000 0.000000 0.000000 0.103050 3.616729 -20.777489 2.462565 0.754312 0.735158 4.984075 -35.731948 -20.166989 0.000000 0.000000 0.000000 -1.858710 -2.589182 -21.160296 -0.033064 1.297117 0.226840 -5.493390 -4.351121 4.238289 0.000000 0.000000 0.000000
-31.138078 72.527605 346.524335 0.789182 1.492920 20.540340 0.135108 -0.135375 -20.524163 0.072644 -0.228614 0.044944 7.064397 8.263025 1.083240 0.000000 0.000000 0.000000 -69.248934 1.951507 -10.157450 -5.904857 -15.564943 23.970258 -18.062821 -36.504374 18.976649 24.083549 22.597693 -44.785462 0.000000 0.000000 0.000000 0.000000 0.000000 0.000000 70.449189 52.864923 -15.578974 -3.526413 -9.767270 -30.538202 23.533547 17.650570 -33.297746 -23.201296 -39.966428 29.974068 0.000000 0.000000 0.000000 0.000000 0.000000 0.000000 0.313473 3.654896 -20.398685 2.273769 1.038519 0.685612 2.858044 -23.474814 -9.123592 0.000000 0.000000 0.000000 -1.354121 -2.381336 -20.762085 -0.361703 1.210858 0.200146 -5.596485 -4.219253 4.292397 0.000000 0.000000 0.000000
-31.284049 72.158143 346.648400 0.793462 0.920220 20.099036 0.141695 -0.476540 -20.068526 0.063719 -0.363621 0.056687 7.603636 10.131432 0.959872 0.000000 0.000000 0.000000 -62.894528 -5.911775 -12.098048 -7.272442 -18.167289 19.502982 -25.796440 -30.841563 6.835435 29.400099 19.961224 -35.196103 0.000000 0.000000 0.000000 0.000000 0.000000 0.000000 64.544102 43.357728 -10.109402 -0.461084 -10.527020 -26.597513 19.777715 22.698596 -28.456302 -29.183460 -40.349504 18.873555 0.000000 0.000000 0.000000 0.000000 0.000000 0.000000 0.690485 3.976264 -19.904764 1.963480 1.229704 0.600506 1.625593 -19.631477 -5.174639 0.000000 0.000000 0.000000 -0.557097 -1.779230 -20.225298 -0.883939 0.940139 0.132097 -5.998488 -4.390042 4.577137 0.000000 0.000000 0.000000
-31.438428 71.813010 346.729443 0.945390 0.080610 19.492630 0.102595 -0.787074 -19.443942 0.045575 -0.426432 0.071989 7.964067 12.603674 0.816222 0.000000 0.000000 0.000000 -57.683276 -13.979772 -13.478370 -7.703858 -22.203052 14.481103 -33.758240 -21.908936 -7.867731 37.574140 21.157647 -22.306591 0.000000 0.000000 0.000000 0.000000 0.000000 0.000000 62.717067 34.105587 -7.476506 2.680601 -13.439610 -22.833332 19.375331 29.592531 -20.708764 -39.599746 -37.834894 3.508348 0.000000 0.000000 0.000000 0.000000 0.000000 0.000000 1.028490 4.488853 -19.244633 1.574895 1.540693 0.496178 0.255924 -15.870857 -1.744588 0.000000 0.000000 0.000000 0.157094 -0.875517 -19.543368 -1.386334 0.690905 0.066319 -6.791992 -5.246914 5.190182 0.000000 0.000000 0.000000
-31.592013 71.520511 346.742365 1.211050 -0.914836 18.892078 0.032804 -1.014696 -18.819052 0.020811 -0.430675 0.088938 8.322981 15.059931 0.625050 0.000000 0.000000 0.000000 -52.893533 -21.176794 -14.018679 -6.586850 -25.807743 9.475244 -40.014428 -9.224505 -25.972682 41.598853 28.204087 -2.594160 0.000000 0.000000 0.000000 0.000000 0.000000 0.000000 63.338525 25.270099 -5.950878 6.315911 -16.671445 -19.710814 9.483559 31.053326 2.555350 -41.174231 -28.833680 -11.037738 0.000000 0.000000 0.000000 0.000000 0.000000 0.000000 1.288058 5.126649 -18.596805 1.172147 1.887812 0.390166 -0.870986 -12.771020 0.428316 0.000000 0.000000 0.000000 0.709369 0.034706 -18.919398 -1.871334 0.651321 0.039368 -7.260276 -5.663660 5.539828 0.000000 0.000000 0.000000
